<svg id="Component_1_1" data-name="Component 1 – 1" xmlns="http://www.w3.org/2000/svg" width="450.589" height="450.589" viewBox="0 0 450.589 450.589">
  <defs>
    <style>
      .cls-1 {
        fill: #d56028;
      }

      .cls-2 {
        fill: #f7f4d8;
        font-size: 45px;
        font-family: DKDownwardFall, DK Downward Fall;
      }

      .cls-3 {
        font-family: SegoeUI, Segoe UI;
      }

      .cls-4, .cls-5 {
        stroke: none;
      }

      .cls-5 {
        fill: #f6cb32;
      }
    </style>
  </defs>
  <g id="Path_19" data-name="Path 19" class="cls-1">
    <path class="cls-4" d="M 225.294677734375 449.0893859863281 C 210.1094970703125 449.0893859863281 194.934326171875 447.5596313476563 180.190673828125 444.5426330566406 C 165.8224487304688 441.6025085449219 151.6894378662109 437.21533203125 138.1841430664063 431.5030822753906 C 124.9237365722656 425.8943786621094 112.1339111328125 418.9523315429688 100.1700286865234 410.8696899414063 C 88.31938171386719 402.8634948730469 77.17549896240234 393.6689758300781 67.0479736328125 383.5414428710938 C 56.92044067382813 373.4139099121094 47.72591400146484 362.27001953125 39.7197380065918 350.4193725585938 C 31.63708877563477 338.4554443359375 24.69497108459473 325.6656188964844 19.08632469177246 312.4052124023438 C 13.37408924102783 298.8999633789063 8.986912727355957 284.7669067382813 6.04679536819458 270.398681640625 C 3.029795408248901 255.655029296875 1.500030636787415 240.4798583984375 1.500030636787415 225.294677734375 C 1.500030636787415 210.1094970703125 3.029795408248901 194.934326171875 6.04679536819458 180.190673828125 C 8.986912727355957 165.8224487304688 13.37408924102783 151.6894378662109 19.08632469177246 138.1841430664063 C 24.69497108459473 124.9237365722656 31.63708877563477 112.1339111328125 39.7197380065918 100.1700286865234 C 47.72591400146484 88.31938171386719 56.92044067382813 77.17549896240234 67.0479736328125 67.0479736328125 C 77.17549896240234 56.92044067382813 88.31938171386719 47.72591400146484 100.1700286865234 39.7197380065918 C 112.1339111328125 31.63708877563477 124.9237365722656 24.69497108459473 138.1841430664063 19.08632469177246 C 151.6894378662109 13.37408924102783 165.8224487304688 8.986912727355957 180.190673828125 6.04679536819458 C 194.934326171875 3.029795408248901 210.1094970703125 1.500030636787415 225.294677734375 1.500030636787415 C 240.4798583984375 1.500030636787415 255.655029296875 3.029795408248901 270.398681640625 6.04679536819458 C 284.7669067382813 8.986912727355957 298.8999633789063 13.37408924102783 312.4052124023438 19.08632469177246 C 325.6656188964844 24.69497108459473 338.4554443359375 31.63708877563477 350.4193725585938 39.7197380065918 C 362.27001953125 47.72591400146484 373.4139099121094 56.92044067382813 383.5414428710938 67.0479736328125 C 393.6689758300781 77.17549896240234 402.8634948730469 88.31938171386719 410.8696899414063 100.1700286865234 C 418.9523315429688 112.1339111328125 425.8943786621094 124.9237365722656 431.5030822753906 138.1841430664063 C 437.21533203125 151.6894378662109 441.6025085449219 165.8224487304688 444.5426330566406 180.190673828125 C 447.5596313476563 194.934326171875 449.0893859863281 210.1094970703125 449.0893859863281 225.294677734375 C 449.0893859863281 240.4798583984375 447.5596313476563 255.655029296875 444.5426330566406 270.398681640625 C 441.6025085449219 284.7669067382813 437.21533203125 298.8999633789063 431.5030822753906 312.4052124023438 C 425.8943786621094 325.6656188964844 418.9523315429688 338.4554443359375 410.8696899414063 350.4193725585938 C 402.8634948730469 362.27001953125 393.6689758300781 373.4139099121094 383.5414428710938 383.5414428710938 C 373.4139099121094 393.6689758300781 362.27001953125 402.8634948730469 350.4193725585938 410.8696899414063 C 338.4554443359375 418.9523315429688 325.6656188964844 425.8943786621094 312.4052124023438 431.5030822753906 C 298.8999633789063 437.21533203125 284.7669067382813 441.6025085449219 270.398681640625 444.5426330566406 C 255.655029296875 447.5596313476563 240.4798583984375 449.0893859863281 225.294677734375 449.0893859863281 Z"/>
    <path class="cls-5" d="M 225.294677734375 2.999969482421875 C 210.2103271484375 2.999969482421875 195.1362609863281 4.519439697265625 180.4913940429688 7.516265869140625 C 166.2201538085938 10.43655395507813 152.1825561523438 14.79409790039063 138.7684326171875 20.46774291992188 C 125.5972595214844 26.03872680664063 112.893310546875 32.9342041015625 101.0096740722656 40.96261596679688 C 89.2381591796875 48.91531372070313 78.16860961914063 58.04855346679688 68.10855102539063 68.10855102539063 C 58.04855346679688 78.16860961914063 48.91531372070313 89.2381591796875 40.96261596679688 101.0096740722656 C 32.9342041015625 112.893310546875 26.03872680664063 125.5972595214844 20.46774291992188 138.7684326171875 C 14.79409790039063 152.1825561523438 10.43655395507813 166.2201538085938 7.516265869140625 180.4913940429688 C 4.519439697265625 195.1362609863281 2.999969482421875 210.2103271484375 2.999969482421875 225.294677734375 C 2.999969482421875 240.3790283203125 4.519439697265625 255.4530334472656 7.516265869140625 270.0979614257813 C 10.43655395507813 284.3692016601563 14.79409790039063 298.4067993164063 20.46774291992188 311.8208618164063 C 26.03872680664063 324.9920959472656 32.9342041015625 337.6959838867188 40.96261596679688 349.5796203613281 C 48.91531372070313 361.3511962890625 58.04855346679688 372.4206848144531 68.10855102539063 382.4807434082031 C 78.16860961914063 392.5408020019531 89.2381591796875 401.6739807128906 101.0096740722656 409.6266784667969 C 112.893310546875 417.6550903320313 125.5972595214844 424.5505676269531 138.7684326171875 430.1215515136719 C 152.1825561523438 435.7951965332031 166.2201538085938 440.1527404785156 180.4913940429688 443.0730285644531 C 195.1362609863281 446.0698547363281 210.2103271484375 447.5893249511719 225.294677734375 447.5893249511719 C 240.3790283203125 447.5893249511719 255.4530944824219 446.0698547363281 270.0979614257813 443.0730285644531 C 284.3692016601563 440.1527404785156 298.4067993164063 435.7951965332031 311.8208618164063 430.1215515136719 C 324.9920959472656 424.5505676269531 337.6959838867188 417.6550903320313 349.5796203613281 409.6266784667969 C 361.3511962890625 401.6739807128906 372.4206848144531 392.5408020019531 382.4807434082031 382.4807434082031 C 392.5408020019531 372.4206848144531 401.6739807128906 361.3511962890625 409.6266784667969 349.5796203613281 C 417.6550903320313 337.6959838867188 424.5505676269531 324.9920959472656 430.1215515136719 311.8208618164063 C 435.7951965332031 298.4067993164063 440.1527404785156 284.3692016601563 443.0730285644531 270.0979614257813 C 446.0698547363281 255.4530944824219 447.5893249511719 240.3790283203125 447.5893249511719 225.294677734375 C 447.5893249511719 210.2103271484375 446.0698547363281 195.1362609863281 443.0730285644531 180.4913940429688 C 440.1527404785156 166.2201538085938 435.7951965332031 152.1825561523438 430.1215515136719 138.7684326171875 C 424.5505676269531 125.5972595214844 417.6550903320313 112.893310546875 409.6266784667969 101.0096740722656 C 401.6739807128906 89.2381591796875 392.5408020019531 78.16860961914063 382.4807434082031 68.10855102539063 C 372.4206848144531 58.04855346679688 361.3511962890625 48.91531372070313 349.5796203613281 40.96261596679688 C 337.6959838867188 32.9342041015625 324.9920959472656 26.03872680664063 311.8208618164063 20.46774291992188 C 298.4067993164063 14.79409790039063 284.3692016601563 10.43655395507813 270.0979614257813 7.516265869140625 C 255.4530334472656 4.519439697265625 240.3790283203125 2.999969482421875 225.294677734375 2.999969482421875 M 225.294677734375 -3.0517578125e-05 C 349.7214965820313 -3.0517578125e-05 450.5893249511719 100.8678588867188 450.5893249511719 225.294677734375 C 450.5893249511719 349.7214965820313 349.7214965820313 450.5893249511719 225.294677734375 450.5893249511719 C 100.8678588867188 450.5893249511719 -3.0517578125e-05 349.7214965820313 -3.0517578125e-05 225.294677734375 C -3.0517578125e-05 100.8678588867188 100.8678588867188 -3.0517578125e-05 225.294677734375 -3.0517578125e-05 Z"/>
  </g>
  <text id="ALL_ORDERS_OVER_50_20_OFF_" data-name="ALL ORDERS OVER $50 20% OFF!" class="cls-2" transform="translate(17.653 166.795)"><tspan x="-175.298" y="49">ALL ORDERS OVER </tspan><tspan x="-137.348" y="106">$50 20</tspan><tspan class="cls-3" y="106">%</tspan><tspan y="106" xml:space="preserve"> OFF!</tspan></text>
</svg>
