<svg xmlns="http://www.w3.org/2000/svg" width="13.016" height="20.825" viewBox="0 0 13.016 20.825">
  <defs>
    <style>
      .cls-1 {
        fill: #fff;
      }
    </style>
  </defs>
  <path id="location_icon" class="cls-1" d="M9.508,0A6.509,6.509,0,0,0,3,6.508c0,6.508,6.508,14.317,6.508,14.317s6.508-7.809,6.508-14.317A6.509,6.509,0,0,0,9.508,0Zm0,10.494a3.987,3.987,0,1,1,3.987-3.987A3.987,3.987,0,0,1,9.508,10.494ZM6.987,6.508A2.522,2.522,0,1,1,9.509,9.03,2.522,2.522,0,0,1,6.987,6.508Z" transform="translate(-3)"/>
</svg>
