<svg xmlns="http://www.w3.org/2000/svg" width="15.347" height="24.555" viewBox="0 0 15.347 24.555">
  <defs>
    <style>
      .cls-1 {
        fill: #fff;
      }
    </style>
  </defs>
  <path id="mobile_icon" class="cls-1" d="M16.045,0H5.3A2.309,2.309,0,0,0,3,2.3V22.253a2.309,2.309,0,0,0,2.3,2.3H16.045a2.309,2.309,0,0,0,2.3-2.3V2.3A2.309,2.309,0,0,0,16.045,0ZM7.6,1.151h6.139v.767H7.6ZM10.673,23.02a1.535,1.535,0,1,1,1.535-1.535A1.535,1.535,0,0,1,10.673,23.02Zm6.139-4.6H4.535V3.069H16.812Z" transform="translate(-3)"/>
</svg>
